<?xml version="1.0" encoding="utf-8"?>
<!-- Generator: Adobe Illustrator 21.1.0, SVG Export Plug-In . SVG Version: 6.00 Build 0)  -->
<svg version="1.2" baseProfile="tiny" id="Laag_1" xmlns="http://www.w3.org/2000/svg" xmlns:xlink="http://www.w3.org/1999/xlink"
	 x="0px" y="0px" viewBox="0 0 141.7 141.7" xml:space="preserve">
<title>bathroom</title>
<g id="BG">
	<rect y="0" fill="#FFFFFF" width="141.7" height="141.7"/>
</g>
<g id="Icon">
	<path fill="#FFFFFF" stroke="#1CF263" stroke-width="1.5" stroke-miterlimit="10" d="M22.1,64.6h96.4V81c0,7.1-5.7,12.8-12.8,12.9
		c0,0,0,0,0,0H35c-7.1,0-12.8-5.7-12.9-12.8V64.6z"/>
	<ellipse fill="#FFFFFF" stroke="#1CF263" stroke-width="1.5" stroke-miterlimit="10" cx="37.3" cy="53.7" rx="0" ry="10.9"/>
	<ellipse fill="#FFFFFF" stroke="#1CF263" stroke-width="1.5" stroke-miterlimit="10" cx="45.5" cy="42.8" rx="8.2" ry="0"/>
	<ellipse fill="#FFFFFF" stroke="#1CF263" stroke-width="1.5" stroke-linejoin="round" cx="53.8" cy="45.5" rx="0" ry="2.7"/>
	<path fill="#FFFFFF" stroke="#1CF263" stroke-width="1.5" stroke-miterlimit="10" d="M46.6,48.1h15c0.6,0,1.1,0.5,1.1,1.1
		c0,0,0,0,0,0l0,0c0,0.6-0.5,1.1-1.1,1.1c0,0,0,0,0,0h-15c-0.6,0-1.1-0.5-1.1-1.1c0,0,0,0,0,0l0,0C45.5,48.6,46,48.1,46.6,48.1
		C46.6,48.1,46.6,48.1,46.6,48.1z"/>
	<circle fill="#FFFFFF" stroke="#1CF263" stroke-width="1.5" stroke-miterlimit="10" cx="50.6" cy="54.2" r="0.9"/>
	<circle fill="#FFFFFF" stroke="#1CF263" stroke-width="1.5" stroke-miterlimit="10" cx="50.9" cy="58.1" r="0.9"/>
	<circle fill="#FFFFFF" stroke="#1CF263" stroke-width="1.5" stroke-miterlimit="10" cx="58.3" cy="54.2" r="0.9"/>
	<circle fill="#FFFFFF" stroke="#1CF263" stroke-width="1.5" stroke-miterlimit="10" cx="58.3" cy="58.1" r="0.9"/>
	<circle fill="#FFFFFF" stroke="#1CF263" stroke-width="1.5" stroke-miterlimit="10" cx="58.3" cy="61.8" r="0.9"/>
	<line fill="none" stroke="#1CF263" stroke-width="1.5" stroke-miterlimit="10" x1="37" y1="93.9" x2="37" y2="98.9"/>
	<line fill="none" stroke="#1CF263" stroke-width="1.5" stroke-miterlimit="10" x1="104.2" y1="93.9" x2="104.2" y2="98.9"/>
</g>
</svg>
