<svg xmlns="http://www.w3.org/2000/svg" viewBox="0 0 134.56 140.74"><defs><style>.cls-1{fill:none;stroke:#1cf263;stroke-linecap:round;stroke-linejoin:round;stroke-width:7px;}.cls-2{fill:#1cf263;}</style></defs><title>beeldmerk_neg</title><g id="Logo"><path class="cls-1" d="M62.11,144.78H21.24v-88L83.33,18.91,148.8,56.8v88l-65,0" transform="translate(-17.74 -15.41)"/><circle class="cls-2" cx="67.28" cy="129.4" r="11.34"/><path class="cls-2" d="M80,74.83A75.29,75.29,0,0,1,137.54,96a5.52,5.52,0,0,1-8.05,7.52,64.13,64.13,0,0,0-88.62-.19,5.53,5.53,0,0,1-3.58,1.85,5.77,5.77,0,0,1-6-6.7,5.6,5.6,0,0,1,1.91-3.08A75.43,75.43,0,0,1,80,74.83Z" transform="translate(-17.74 -15.41)"/><path class="cls-2" d="M79.46,95.45a54.84,54.84,0,0,1,44.25,15.7,5.3,5.3,0,0,1-.42,7.19,5.24,5.24,0,0,1-7.49.45,43.67,43.67,0,0,0-61.38-.07,5.53,5.53,0,0,1-7.92-7.65A54.93,54.93,0,0,1,79.46,95.45Z" transform="translate(-17.74 -15.41)"/><path class="cls-2" d="M81.84,115.81a34.37,34.37,0,0,1,27.76,10.25,5.52,5.52,0,0,1-7.91,7.64,23.14,23.14,0,0,0-32.9-.33,5.34,5.34,0,0,1-4.54,1.85c-4-.28-6.78-5.62-4-8.83A34.23,34.23,0,0,1,81.84,115.81Z" transform="translate(-17.74 -15.41)"/></g></svg>