<?xml version="1.0" encoding="utf-8"?>
<!-- Generator: Adobe Illustrator 21.1.0, SVG Export Plug-In . SVG Version: 6.00 Build 0)  -->
<svg version="1.2" baseProfile="tiny" id="Laag_1" xmlns="http://www.w3.org/2000/svg" xmlns:xlink="http://www.w3.org/1999/xlink"
	 x="0px" y="0px" viewBox="0 0 170.1 170.1" xml:space="preserve">
<g id="BG">
</g>
<g id="Company_name" display="none">
	<g display="inline">
		<path fill="#083015" d="M2.5,175.9c0,1.7-0.6,3.1-1.9,4s-3.1,1.4-5.5,1.4c-2.5,0-4.4-0.4-5.8-1.2v-2.6c0.9,0.5,1.9,0.8,2.9,1.1
			s2,0.4,3,0.4c1.5,0,2.6-0.2,3.4-0.7s1.2-1.2,1.2-2.2c0-0.7-0.3-1.4-0.9-1.9s-1.9-1.1-3.7-1.8c-1.7-0.6-3-1.2-3.7-1.7
			s-1.3-1-1.6-1.6c-0.4-0.6-0.5-1.4-0.5-2.2c0-1.5,0.6-2.7,1.9-3.6c1.2-0.9,2.9-1.3,5.1-1.3c2,0,4,0.4,5.9,1.2l-1,2.3
			c-1.9-0.8-3.6-1.2-5.1-1.2c-1.3,0-2.4,0.2-3,0.6c-0.7,0.4-1,1-1,1.7c0,0.5,0.1,0.9,0.4,1.3s0.7,0.7,1.2,1c0.6,0.3,1.7,0.8,3.3,1.4
			c2.2,0.8,3.7,1.6,4.5,2.4C2.2,173.6,2.5,174.6,2.5,175.9z"/>
		<path fill="#083015" d="M31,181v-12.2c0-1.5-0.3-2.6-1-3.4c-0.6-0.7-1.6-1.1-3-1.1c-1.8,0-3.1,0.5-3.9,1.5s-1.3,2.6-1.3,4.7V181
			H19v-12.2c0-1.5-0.3-2.6-1-3.4c-0.6-0.7-1.6-1.1-3-1.1c-1.8,0-3.1,0.5-3.9,1.6s-1.2,2.8-1.2,5.2v9.8H7.1v-18.7h2.3l0.5,2.6H10
			c0.5-0.9,1.3-1.6,2.3-2.1s2.1-0.8,3.3-0.8c2.9,0,4.8,1.1,5.7,3.2h0.1c0.6-1,1.4-1.8,2.4-2.3c1.1-0.6,2.3-0.9,3.6-0.9
			c2.1,0,3.7,0.5,4.8,1.6c1.1,1.1,1.6,2.8,1.6,5.2v12.2L31,181L31,181z"/>
		<path fill="#083015" d="M51.2,181l-0.6-2.7h-0.1c-0.9,1.2-1.9,2-2.8,2.4s-2.1,0.6-3.5,0.6c-1.9,0-3.3-0.5-4.4-1.4
			c-1.1-1-1.6-2.3-1.6-4.1c0-3.8,3-5.8,9.1-5.9l3.2-0.1v-1.2c0-1.5-0.3-2.6-0.9-3.3c-0.6-0.7-1.6-1.1-3-1.1c-1.6,0-3.3,0.5-5.3,1.4
			l-0.9-2.2c0.9-0.5,1.9-0.9,3-1.2c1.1-0.3,2.2-0.4,3.3-0.4c2.2,0,3.9,0.5,5,1.5s1.6,2.6,1.6,4.8v12.8h-2.1V181z M44.8,179
			c1.8,0,3.2-0.5,4.2-1.5s1.5-2.3,1.5-4.1v-1.6l-2.8,0.1c-2.3,0.1-3.9,0.4-4.9,1.1c-1,0.6-1.5,1.6-1.5,2.9c0,1,0.3,1.8,0.9,2.3
			C42.8,178.7,43.7,179,44.8,179z"/>
		<path fill="#083015" d="M67.7,161.9c0.8,0,1.6,0.1,2.2,0.2l-0.4,2.6c-0.8-0.2-1.5-0.3-2.1-0.3c-1.5,0-2.8,0.6-3.9,1.8
			c-1.1,1.2-1.6,2.8-1.6,4.6v10h-2.8v-18.7h2.3l0.3,3.5h0.1c0.7-1.2,1.5-2.2,2.5-2.8C65.5,162.2,66.6,161.9,67.7,161.9z"/>
		<path fill="#083015" d="M79.5,179c0.5,0,1,0,1.5-0.1s0.8-0.2,1.1-0.2v2.2c-0.3,0.1-0.8,0.3-1.4,0.4c-0.6,0.1-1.1,0.1-1.6,0.1
			c-3.6,0-5.4-1.9-5.4-5.7v-11.1H71v-1.4l2.7-1.2l1.2-4h1.6v4.3h5.4v2.2h-5.4v11c0,1.1,0.3,2,0.8,2.6C77.8,178.7,78.6,179,79.5,179z
			"/>
		<path fill="#083015" d="M103.2,181H98v-11.2c0-2.8-1-4.1-3.1-4.1c-1.5,0-2.5,0.5-3.2,1.5s-1,2.6-1,4.8v9h-5.2v-26.6h5.2v5.4
			c0,0.4,0,1.4-0.1,3l-0.1,1.5h0.3c1.2-1.9,3-2.8,5.5-2.8c2.2,0,3.9,0.6,5.1,1.8c1.2,1.2,1.7,2.9,1.7,5.2V181H103.2z"/>
		<path fill="#083015" d="M125.9,171.4c0,3.1-0.8,5.5-2.5,7.3c-1.6,1.8-3.9,2.6-6.9,2.6c-1.8,0-3.5-0.4-4.9-1.2s-2.5-2-3.2-3.5
			s-1.1-3.3-1.1-5.3c0-3.1,0.8-5.5,2.4-7.3c1.6-1.7,3.9-2.6,6.9-2.6c1.8,0,3.5,0.4,4.9,1.2c1.4,0.8,2.5,1.9,3.2,3.4
			C125.5,167.6,125.9,169.4,125.9,171.4z M112.7,171.4c0,1.9,0.3,3.3,0.9,4.3s1.6,1.5,3,1.5s2.4-0.5,3-1.4c0.6-1,0.9-2.4,0.9-4.3
			c0-1.9-0.3-3.3-0.9-4.3c-0.6-0.9-1.6-1.4-3-1.4s-2.4,0.5-3,1.4C113,168.1,112.7,169.5,112.7,171.4z"/>
		<path fill="#083015" d="M147.3,181h-5.2v-11.2c0-1.4-0.2-2.4-0.7-3.1s-1.2-1-2.2-1c-1.3,0-2.3,0.5-2.9,1.5s-0.9,2.6-0.9,4.8v9
			h-5.2v-19.1h4l0.7,2.4h0.3c0.5-0.9,1.3-1.6,2.2-2.1c1-0.5,2.1-0.7,3.3-0.7c2.9,0,4.8,0.9,5.8,2.8h0.5c0.5-0.9,1.3-1.6,2.3-2.1
			s2.1-0.7,3.4-0.7c2.2,0,3.8,0.6,4.9,1.7s1.7,2.9,1.7,5.3V181h-5.2v-11.2c0-1.4-0.2-2.4-0.7-3.1s-1.2-1-2.2-1
			c-1.3,0-2.2,0.5-2.9,1.4c-0.6,0.9-0.9,2.4-0.9,4.3L147.3,181L147.3,181z"/>
		<path fill="#083015" d="M173.2,181.3c-3.1,0-5.5-0.8-7.2-2.5s-2.6-4.1-2.6-7.2c0-3.2,0.8-5.7,2.4-7.4c1.6-1.7,3.8-2.6,6.6-2.6
			c2.7,0,4.8,0.8,6.3,2.3s2.3,3.7,2.3,6.4v2.5h-12.3c0.1,1.5,0.5,2.6,1.3,3.5c0.8,0.8,2,1.2,3.5,1.2c1.2,0,2.2-0.1,3.3-0.4
			s2.1-0.6,3.2-1.1v4c-0.9,0.5-1.9,0.8-2.9,1C176,181.2,174.7,181.3,173.2,181.3z M172.5,165.2c-1.1,0-2,0.4-2.6,1.1s-1,1.7-1.1,3
			h7.3c0-1.3-0.4-2.3-1-3S173.6,165.2,172.5,165.2z"/>
	</g>
</g>
<g id="Logo">
	<path fill="none" stroke="#083015" stroke-width="7" stroke-linecap="round" stroke-linejoin="round" stroke-miterlimit="10" d="
		M62.1,146.8c-13.6,0-27.2,0-40.9,0v-88c20.7-12.6,41.4-25.3,62.1-37.9c21.8,12.6,43.6,25.3,65.5,37.9c0,29.3,0,58.7,0,88
		c-21.7,0-43.4,0-65,0"/>
	<circle fill="#083015" cx="85" cy="146.8" r="11.3"/>
	<path fill="#083015" d="M79.9,76.8c21-1.5,42.6,6.4,57.6,21.2c2,2,1.7,5.6-0.4,7.4c-1.9,2.2-5.7,2.3-7.7,0.1
		c-12.8-12.4-31-19-48.8-17.7c-14.8,1-29.1,7.3-39.8,17.5c-1,1-2.2,1.8-3.6,1.8c-3.5,0.4-6.8-3.3-6-6.7c0.2-1.2,1-2.3,1.9-3.1
		C45.7,85.4,62.6,78,79.9,76.8z"/>
	<path fill="#083015" d="M79.4,97.5c16.1-1.8,32.8,4.2,44.2,15.7c1.8,2,1.6,5.4-0.4,7.2c-1.8,2.2-5.4,2.5-7.5,0.5
		c-7.3-7.2-17.2-11.8-27.4-12.5c-12.4-1-25.1,3.7-34,12.4c-2,2.2-5.8,1.9-7.7-0.4c-2-1.9-2.1-5.3-0.2-7.3
		C55.2,104.3,67.1,98.7,79.4,97.5z"/>
	<path fill="#083015" d="M81.8,117.8c10.2-1,20.7,2.9,27.8,10.2c1.9,2,1.7,5.5-0.3,7.4c-1.9,2.2-5.6,2.4-7.6,0.3
		c-4-4.1-9.5-6.7-15.2-7c-6.5-0.5-13.1,2.1-17.7,6.7c-1.1,1.3-2.8,2.1-4.5,1.9c-4-0.3-6.8-5.6-4-8.8
		C65.7,122.4,73.7,118.6,81.8,117.8z"/>
</g>
</svg>
