<?xml version="1.0" encoding="utf-8"?>
<!-- Generator: Adobe Illustrator 21.1.0, SVG Export Plug-In . SVG Version: 6.00 Build 0)  -->
<svg version="1.2" baseProfile="tiny" id="Laag_1" xmlns="http://www.w3.org/2000/svg" xmlns:xlink="http://www.w3.org/1999/xlink"
	 x="0px" y="0px" viewBox="0 0 141.7 141.7" xml:space="preserve">
<title>entree</title>
<g id="BG">
	<rect y="0" fill="#FFFFFF" width="141.7" height="141.7"/>
</g>
<g id="Icon">
	<path fill="none" stroke="#1CF263" stroke-width="1.5" stroke-miterlimit="10" d="M43.2,28.1h41.4c1.9,0,3.5,1.6,3.5,3.5v78.6
		c0,1.9-1.6,3.5-3.5,3.5H43.2c-1.9,0-3.5-1.6-3.5-3.5V31.6C39.7,29.6,41.3,28.1,43.2,28.1z"/>
	<path fill="none" stroke="#1CF263" stroke-width="1.5" stroke-miterlimit="10" d="M97.5,44.6h3c0.8,0,1.5,0.7,1.5,1.6v14.6
		c0,0.9-0.7,1.6-1.6,1.6h-3c-0.9,0-1.6-0.7-1.6-1.6V46.2C95.9,45.3,96.6,44.6,97.5,44.6L97.5,44.6L97.5,44.6z"/>
	<circle fill="none" stroke="#1CF263" stroke-width="1.5" stroke-miterlimit="10" cx="99" cy="53.5" r="1.2"/>
	<path fill="none" stroke="#1CF263" stroke-width="1.5" stroke-miterlimit="10" d="M51.1,35.4h7c1,0,1.9,0.8,1.9,1.9v28
		c0,1-0.8,1.9-1.9,1.9h-7c-1,0-1.9-0.8-1.9-1.9v-28C49.2,36.2,50,35.4,51.1,35.4z"/>
	<path fill="none" stroke="#1CF263" stroke-width="1.5" stroke-miterlimit="10" d="M69.7,35.4h7c1,0,1.9,0.8,1.9,1.9v28
		c0,1-0.8,1.9-1.9,1.9h-7c-1,0-1.9-0.8-1.9-1.9v-28C67.8,36.2,68.6,35.4,69.7,35.4z"/>
	<path fill="none" stroke="#1CF263" stroke-width="1.5" stroke-miterlimit="10" d="M52.3,76.4h23.2c1.7,0,3.1,1.4,3.1,3.1V105
		c0,1.7-1.4,3.1-3.1,3.1H52.3c-1.7,0-3.1-1.4-3.1-3.1V79.4C49.2,77.8,50.6,76.4,52.3,76.4z"/>
	<ellipse fill="none" stroke="#1CF263" stroke-width="1.5" stroke-linejoin="round" cx="74.7" cy="71.2" rx="3.8" ry="0"/>
</g>
</svg>
