<svg xmlns="http://www.w3.org/2000/svg" viewBox="0 0 141.73 141.73"><defs><style>.cls-1,.cls-2{fill:#fff;}.cls-2{stroke:#1cf263;stroke-miterlimit:10;stroke-width:1.5px;}</style></defs><title>kitchen</title><g id="BG"><rect class="cls-1" width="141.73" height="141.73"/></g><g id="Icon"><path class="cls-2" d="M87.46,56.13H54a2.7,2.7,0,0,1-2.7-2.7V51.68A2.7,2.7,0,0,1,54,49H67.27V34.21h7.35V49H87.46a2.87,2.87,0,0,1,1.91.79A2.79,2.79,0,0,1,90,50.87a2.7,2.7,0,0,1,.12.8v1.75a2.7,2.7,0,0,1-2.69,2.71Z"/><rect class="cls-2" x="51.44" y="63.57" width="38.89" height="43.95" rx="2.7" ry="2.7"/><rect class="cls-2" x="19.84" y="63.57" width="28.11" height="43.95" rx="2.3" ry="2.3"/><rect class="cls-2" x="93.78" y="63.57" width="28.11" height="43.95" rx="2.3" ry="2.3"/><rect class="cls-2" x="55.27" y="82.01" width="31.33" height="22.11" rx="2.7" ry="2.7"/><rect class="cls-2" x="58.75" y="84.46" width="24.37" height="17.2" rx="2.1" ry="2.1"/><circle class="cls-2" cx="58.91" cy="71.92" r="2.03"/><circle class="cls-2" cx="66.9" cy="71.92" r="2.03"/><circle class="cls-2" cx="75.28" cy="71.92" r="2.03"/><circle class="cls-2" cx="83.16" cy="71.92" r="2.03"/></g></svg>