<svg xmlns="http://www.w3.org/2000/svg" viewBox="0 0 141.73 141.73"><defs><style>.cls-1{fill:#fff;}.cls-2,.cls-3,.cls-4{fill:none;stroke:#1cf263;stroke-linecap:round;}.cls-2,.cls-4{stroke-linejoin:round;}.cls-2{stroke-width:1.5px;}.cls-3{stroke-miterlimit:10;stroke-width:2px;}.cls-4{stroke-width:1.2px;}</style></defs><title>light</title><g id="BG"><rect class="cls-1" width="141.73" height="141.73"/></g><g id="Icon"><g id="bulb"><path class="cls-2" d="M69.34,41.8H61.67a27.06,27.06,0,0,0-12.95,7.93,24.47,24.47,0,0,0-6.56,14.14c-.13,1.33-.83,10-.63,11.44a14.07,14.07,0,0,0,2.1,5.38,67.48,67.48,0,0,0,5.41,8c2.14,2.63,5.11,6.5,8.59,11.73H69.5"/><path class="cls-2" d="M69.34,41.8h8.84a26.81,26.81,0,0,1,12.95,7.93,26.18,26.18,0,0,1,6.56,14.14c.13,1.33.83,10,.63,11.44a14.07,14.07,0,0,1-2.1,5.38,67.48,67.48,0,0,1-5.41,8c-2.14,2.63-5.11,6.5-8.59,11.73H69.5"/></g><line class="cls-3" x1="60.23" y1="104.05" x2="79.08" y2="104.05"/><line class="cls-3" x1="55.96" y1="109.18" x2="83.63" y2="109.18"/><line class="cls-3" x1="58.68" y1="114.31" x2="82.17" y2="114.31"/><line class="cls-3" x1="66.14" y1="119.44" x2="73.54" y2="119.44"/><path class="cls-4" d="M51.7,70.28A20.2,20.2,0,0,1,72,51a2.72,2.72,0,0,0,1.34-2.57A2.82,2.82,0,0,0,72,46.36,22.81,22.81,0,0,0,46.74,70.28,3,3,0,0,0,49,71.82,2.84,2.84,0,0,0,51.7,70.28Z"/><line class="cls-4" x1="33.72" y1="57.2" x2="25.1" y2="53.1"/><line class="cls-4" x1="48.22" y1="39.22" x2="41.28" y2="30.72"/><line class="cls-4" x1="70.35" y1="32.15" x2="70.35" y2="22.29"/><line class="cls-4" x1="92.43" y1="38.1" x2="99.69" y2="30.66"/><line class="cls-4" x1="105.76" y1="58.44" x2="115.81" y2="52.92"/></g></svg>