<?xml version="1.0" encoding="utf-8"?>
<!-- Generator: Adobe Illustrator 21.1.0, SVG Export Plug-In . SVG Version: 6.00 Build 0)  -->
<svg version="1.2" baseProfile="tiny" xmlns="http://www.w3.org/2000/svg" xmlns:xlink="http://www.w3.org/1999/xlink" x="0px"
	 y="0px" viewBox="0 0 850.4 850.4" xml:space="preserve">
<g id="BG">
</g>
<g id="Company_name">
	<g>
		<path fill="#083015" d="M342.7,516.1c0,1.7-0.6,3.1-1.9,4c-1.3,0.9-3.1,1.4-5.5,1.4c-2.5,0-4.4-0.4-5.8-1.2v-2.6
			c0.9,0.5,1.9,0.8,2.9,1.1c1,0.3,2,0.4,3,0.4c1.5,0,2.6-0.2,3.4-0.7c0.8-0.5,1.2-1.2,1.2-2.2c0-0.7-0.3-1.4-0.9-1.9
			c-0.6-0.5-1.9-1.1-3.7-1.8c-1.7-0.6-3-1.2-3.7-1.7c-0.7-0.5-1.3-1-1.6-1.6c-0.4-0.6-0.5-1.4-0.5-2.2c0-1.5,0.6-2.7,1.9-3.6
			c1.2-0.9,2.9-1.3,5.1-1.3c2,0,4,0.4,5.9,1.2l-1,2.3c-1.9-0.8-3.6-1.2-5.1-1.2c-1.3,0-2.4,0.2-3,0.6c-0.7,0.4-1,1-1,1.7
			c0,0.5,0.1,0.9,0.4,1.3c0.3,0.4,0.7,0.7,1.2,1c0.6,0.3,1.7,0.8,3.3,1.4c2.2,0.8,3.7,1.6,4.5,2.4
			C342.4,513.8,342.7,514.8,342.7,516.1z"/>
		<path fill="#083015" d="M371.2,521.2V509c0-1.5-0.3-2.6-1-3.4c-0.6-0.7-1.6-1.1-3-1.1c-1.8,0-3.1,0.5-3.9,1.5
			c-0.8,1-1.3,2.6-1.3,4.7v10.5h-2.8V509c0-1.5-0.3-2.6-1-3.4c-0.6-0.7-1.6-1.1-3-1.1c-1.8,0-3.1,0.5-3.9,1.6
			c-0.8,1.1-1.2,2.8-1.2,5.2v9.8h-2.8v-18.7h2.3l0.5,2.6h0.1c0.5-0.9,1.3-1.6,2.3-2.1c1-0.5,2.1-0.8,3.3-0.8c2.9,0,4.8,1.1,5.7,3.2
			h0.1c0.6-1,1.4-1.8,2.4-2.3c1.1-0.6,2.3-0.9,3.6-0.9c2.1,0,3.7,0.5,4.8,1.6c1.1,1.1,1.6,2.8,1.6,5.2v12.2H371.2z"/>
		<path fill="#083015" d="M391.4,521.2l-0.6-2.7h-0.1c-0.9,1.2-1.9,2-2.8,2.4c-0.9,0.4-2.1,0.6-3.5,0.6c-1.9,0-3.3-0.5-4.4-1.4
			c-1.1-1-1.6-2.3-1.6-4.1c0-3.8,3-5.8,9.1-5.9l3.2-0.1v-1.2c0-1.5-0.3-2.6-0.9-3.3c-0.6-0.7-1.6-1.1-3-1.1c-1.6,0-3.3,0.5-5.3,1.4
			l-0.9-2.2c0.9-0.5,1.9-0.9,3-1.2c1.1-0.3,2.2-0.4,3.3-0.4c2.2,0,3.9,0.5,5,1.5c1.1,1,1.6,2.6,1.6,4.8v12.8H391.4z M385,519.2
			c1.8,0,3.2-0.5,4.2-1.5c1-1,1.5-2.3,1.5-4.1V512l-2.8,0.1c-2.3,0.1-3.9,0.4-4.9,1.1c-1,0.6-1.5,1.6-1.5,2.9c0,1,0.3,1.8,0.9,2.3
			C383,518.9,383.9,519.2,385,519.2z"/>
		<path fill="#083015" d="M407.9,502.1c0.8,0,1.6,0.1,2.2,0.2l-0.4,2.6c-0.8-0.2-1.5-0.3-2.1-0.3c-1.5,0-2.8,0.6-3.9,1.8
			c-1.1,1.2-1.6,2.8-1.6,4.6v10h-2.8v-18.7h2.3l0.3,3.5h0.1c0.7-1.2,1.5-2.2,2.5-2.8C405.7,502.4,406.8,502.1,407.9,502.1z"/>
		<path fill="#083015" d="M419.7,519.2c0.5,0,1,0,1.5-0.1c0.5-0.1,0.8-0.2,1.1-0.2v2.2c-0.3,0.1-0.8,0.3-1.4,0.4
			c-0.6,0.1-1.1,0.1-1.6,0.1c-3.6,0-5.4-1.9-5.4-5.7v-11.1h-2.7v-1.4l2.7-1.2l1.2-4h1.6v4.3h5.4v2.2h-5.4v11c0,1.1,0.3,2,0.8,2.6
			C418,518.9,418.8,519.2,419.7,519.2z"/>
		<path fill="#083015" d="M443.4,521.2h-5.2V510c0-2.8-1-4.1-3.1-4.1c-1.5,0-2.5,0.5-3.2,1.5s-1,2.6-1,4.8v9h-5.2v-26.6h5.2v5.4
			c0,0.4,0,1.4-0.1,3l-0.1,1.5h0.3c1.2-1.9,3-2.8,5.5-2.8c2.2,0,3.9,0.6,5.1,1.8c1.2,1.2,1.7,2.9,1.7,5.2V521.2z"/>
		<path fill="#083015" d="M466.1,511.6c0,3.1-0.8,5.5-2.5,7.3c-1.6,1.8-3.9,2.6-6.9,2.6c-1.8,0-3.5-0.4-4.9-1.2
			c-1.4-0.8-2.5-2-3.2-3.5s-1.1-3.3-1.1-5.3c0-3.1,0.8-5.5,2.4-7.3c1.6-1.7,3.9-2.6,6.9-2.6c1.8,0,3.5,0.4,4.9,1.2
			c1.4,0.8,2.5,1.9,3.2,3.4C465.7,507.8,466.1,509.6,466.1,511.6z M452.9,511.6c0,1.9,0.3,3.3,0.9,4.3c0.6,1,1.6,1.5,3,1.5
			c1.4,0,2.4-0.5,3-1.4c0.6-1,0.9-2.4,0.9-4.3c0-1.9-0.3-3.3-0.9-4.3c-0.6-0.9-1.6-1.4-3-1.4c-1.4,0-2.4,0.5-3,1.4
			C453.2,508.3,452.9,509.7,452.9,511.6z"/>
		<path fill="#083015" d="M487.5,521.2h-5.2V510c0-1.4-0.2-2.4-0.7-3.1c-0.5-0.7-1.2-1-2.2-1c-1.3,0-2.3,0.5-2.9,1.5
			c-0.6,1-0.9,2.6-0.9,4.8v9h-5.2v-19.1h4l0.7,2.4h0.3c0.5-0.9,1.3-1.6,2.2-2.1c1-0.5,2.1-0.7,3.3-0.7c2.9,0,4.8,0.9,5.8,2.8h0.5
			c0.5-0.9,1.3-1.6,2.3-2.1c1-0.5,2.1-0.7,3.4-0.7c2.2,0,3.8,0.6,4.9,1.7c1.1,1.1,1.7,2.9,1.7,5.3v12.5h-5.2V510
			c0-1.4-0.2-2.4-0.7-3.1c-0.5-0.7-1.2-1-2.2-1c-1.3,0-2.2,0.5-2.9,1.4c-0.6,0.9-0.9,2.4-0.9,4.3V521.2z"/>
		<path fill="#083015" d="M513.4,521.5c-3.1,0-5.5-0.8-7.2-2.5c-1.7-1.7-2.6-4.1-2.6-7.2c0-3.2,0.8-5.7,2.4-7.4
			c1.6-1.7,3.8-2.6,6.6-2.6c2.7,0,4.8,0.8,6.3,2.3s2.3,3.7,2.3,6.4v2.5h-12.3c0.1,1.5,0.5,2.6,1.3,3.5c0.8,0.8,2,1.2,3.5,1.2
			c1.2,0,2.2-0.1,3.3-0.4s2.1-0.6,3.2-1.1v4c-0.9,0.5-1.9,0.8-2.9,1C516.2,521.4,514.9,521.5,513.4,521.5z M512.7,505.4
			c-1.1,0-2,0.4-2.6,1.1c-0.6,0.7-1,1.7-1.1,3h7.3c0-1.3-0.4-2.3-1-3C514.7,505.8,513.8,505.4,512.7,505.4z"/>
	</g>
</g>
<g id="Logo">
	<path fill="none" stroke="#083015" stroke-width="7" stroke-linecap="round" stroke-linejoin="round" stroke-miterlimit="10" d="
		M402.3,466.7c-13.6,0-27.2,0-40.9,0v-88c20.7-12.6,41.4-25.3,62.1-37.9c21.8,12.6,43.6,25.3,65.5,37.9c0,29.3,0,58.7,0,88
		c-21.7,0-43.4,0-65,0"/>
	<circle fill="#083015" cx="425.2" cy="466.7" r="11.3"/>
	<path fill="#083015" d="M420.1,396.7c21-1.5,42.6,6.4,57.6,21.2c2,2,1.7,5.6-0.4,7.4c-1.9,2.2-5.7,2.3-7.7,0.1
		c-12.8-12.4-31-19-48.8-17.7c-14.8,1-29.1,7.3-39.8,17.5c-1,1-2.2,1.8-3.6,1.8c-3.5,0.4-6.8-3.3-6-6.7c0.2-1.2,1-2.3,1.9-3.1
		C385.9,405.3,402.8,397.9,420.1,396.7z"/>
	<path fill="#083015" d="M419.6,417.4c16.1-1.8,32.8,4.2,44.2,15.7c1.8,2,1.6,5.4-0.4,7.2c-1.8,2.2-5.4,2.5-7.5,0.5
		c-7.3-7.2-17.2-11.8-27.4-12.5c-12.4-1-25.1,3.7-34,12.4c-2,2.2-5.8,1.9-7.7-0.4c-2-1.9-2.1-5.3-0.2-7.3
		C395.4,424.2,407.3,418.6,419.6,417.4z"/>
	<path fill="#083015" d="M422,437.7c10.2-1,20.7,2.9,27.8,10.2c1.9,2,1.7,5.5-0.3,7.4c-1.9,2.2-5.6,2.4-7.6,0.3
		c-4-4.1-9.5-6.7-15.2-7c-6.5-0.5-13.1,2.1-17.7,6.7c-1.1,1.3-2.8,2.1-4.5,1.9c-4-0.3-6.8-5.6-4-8.8
		C405.9,442.3,413.9,438.5,422,437.7z"/>
	<g>
	</g>
	<g>
	</g>
	<g>
	</g>
	<g>
	</g>
</g>
</svg>
