<svg xmlns="http://www.w3.org/2000/svg" viewBox="0 0 141.73 141.73"><defs><style>.cls-1{fill:#fff;}.cls-2,.cls-3{fill:none;stroke:#1cf263;stroke-linecap:round;stroke-width:1.5px;}.cls-2{stroke-miterlimit:10;}.cls-3{stroke-linejoin:round;}</style></defs><title>temperature</title><g id="BG"><rect class="cls-1" width="141.73" height="141.73"/></g><g id="Icon"><path class="cls-2" d="M84.72,62c2.92,1.62,12,7.14,15.53,18.13a28.88,28.88,0,0,1,1.4,9.27,31.18,31.18,0,0,1-62.36,0,33.85,33.85,0,0,1,1.4-9.27C43.93,69.76,51.7,64,54.77,62"/><path class="cls-3" d="M84.51,62V32.61a15.36,15.36,0,0,0-29.75,0V62"/><path class="cls-2" d="M74.07,67.87a20.94,20.94,0,0,1,10.28,5.06,25.32,25.32,0,0,1,6.21,10.51A23.25,23.25,0,0,1,91.51,89c0,.36,0,.62,0,.76a21.19,21.19,0,0,1-42.39,0,19.51,19.51,0,0,1,1-6.3c3.18-10,12.6-14.45,15.16-15.56"/><path class="cls-3" d="M74.07,67.87q0-17.19,0-34.38a4.33,4.33,0,0,0-8.61-.24l-.19,34.62"/><path class="cls-2" d="M70.48,103.66A14.75,14.75,0,0,1,55.14,92.93"/></g></svg>